<?xml version="1.0" encoding="UTF-8"?>
<!DOCTYPE svg PUBLIC "-//W3C//DTD SVG 1.1//EN" "http://www.w3.org/Graphics/SVG/1.1/DTD/svg11.dtd">
<!-- Creator: CorelDRAW X8 -->
<svg xmlns="http://www.w3.org/2000/svg" xml:space="preserve" width="142.941mm" height="142.941mm" version="1.1" style="shape-rendering:geometricPrecision; text-rendering:geometricPrecision; image-rendering:optimizeQuality; fill-rule:evenodd; clip-rule:evenodd"
viewBox="0 0 14294 14294"
 xmlns:xlink="http://www.w3.org/1999/xlink">
 <defs>
  <style type="text/css">
   <![CDATA[
    .str0 {stroke:#1E154D;stroke-width:7.61998}
    .fil5 {fill:none}
    .fil3 {fill:#16154D}
    .fil0 {fill:#16154D}
    .fil4 {fill:#FEFEFE}
    .fil1 {fill:#FEFEFE}
    .fil2 {fill:#16154D;fill-rule:nonzero}
   ]]>
  </style>
    <clipPath id="id0">
     <path d="M10465 5171c-59,2738 -1267,4449 -3304,5430 -17,8 -11,8 -27,0 -2038,-980 -3246,-2691 -3305,-5430 1206,-79 2590,-435 3318,-1484 779,1061 2062,1402 3318,1484z"/>
    </clipPath>
 </defs>
 <g id="Capa_x0020_1">
  <metadata id="CorelCorpID_0Corel-Layer"/>
  <circle class="fil0" cx="7147" cy="7147" r="7147"/>
  <circle class="fil1" cx="7147" cy="7147" r="6988"/>
  <path class="fil2" d="M832 8126l-39 -481c-9,-109 -7,-192 5,-251 16,-78 51,-147 104,-206 53,-59 120,-106 201,-142 81,-35 183,-58 305,-67 107,-9 201,-3 281,17 97,25 178,65 242,121 48,42 87,101 119,176 23,57 38,134 46,231l40 496 -1304 106zm199 -281l864 -71 -16 -196c-6,-74 -14,-127 -25,-158 -14,-42 -35,-76 -63,-102 -28,-26 -72,-46 -131,-59 -61,-13 -141,-15 -242,-7 -100,8 -177,23 -230,45 -52,22 -92,51 -120,85 -28,35 -45,77 -51,127 -6,38 -4,110 5,217l9 119z"/>
  <polygon id="1" class="fil2" points="2083,6686 796,6452 970,5497 1188,5537 1061,6231 1347,6283 1464,5637 1681,5676 1563,6323 1914,6387 2045,5667 2262,5707 "/>
  <path id="2" class="fil2" d="M2329 5490l-1188 -548 177 -385c68,-145 117,-238 150,-276 49,-60 114,-99 195,-118 80,-18 168,-6 263,38 73,33 128,75 165,124 38,50 61,101 71,155 9,54 9,104 -1,150 -15,63 -48,148 -98,257l-71 156 448 207 -111 240zm-876 -695l337 155 60 -131c44,-94 67,-160 69,-198 2,-38 -6,-71 -24,-102 -18,-30 -45,-53 -80,-70 -43,-19 -84,-23 -124,-11 -40,13 -73,37 -97,73 -19,26 -48,82 -88,168l-53 116z"/>
  <path id="3" class="fil2" d="M2323 4032c-104,-83 -180,-168 -226,-255 -34,-65 -55,-133 -65,-207 -9,-73 -5,-141 13,-205 23,-86 68,-170 134,-253 120,-151 262,-235 428,-252 165,-16 331,42 498,174 166,131 259,278 282,442 22,164 -26,321 -146,472 -120,152 -263,237 -427,253 -164,17 -328,-40 -491,-169zm162 -219c116,92 225,135 327,129 103,-7 187,-51 252,-133 65,-83 89,-174 72,-274 -18,-100 -86,-197 -205,-291 -118,-93 -226,-137 -324,-131 -99,6 -182,51 -250,137 -67,85 -92,177 -75,275 17,99 85,195 203,288z"/>
  <path id="4" class="fil2" d="M3799 3319l-766 -1061 451 -325c113,-82 202,-132 268,-150 65,-18 131,-13 197,13 66,26 121,71 167,134 57,79 81,162 72,247 -10,86 -56,169 -139,250 65,-6 125,-4 178,6 54,11 136,39 247,85l279 113 -256 185 -322 -119c-114,-43 -190,-68 -226,-75 -35,-6 -67,-6 -96,3 -28,8 -67,30 -116,66l-44 31 320 443 -214 154zm-228 -766l159 -115c102,-74 163,-125 183,-152 19,-27 28,-56 27,-88 0,-32 -12,-63 -35,-95 -26,-36 -56,-58 -91,-66 -35,-8 -72,-3 -111,16 -19,11 -72,47 -159,110l-167 120 194 270z"/>
  <polygon id="5" class="fil2" points="5172,2477 4782,1462 4420,1601 4340,1395 5311,1022 5390,1228 5028,1367 5419,2382 "/>
  <polygon id="6" class="fil2" points="5938,2218 5646,943 5904,885 6196,2159 "/>
  <polygon id="7" class="fil2" points="6773,2085 6263,792 6550,783 6911,1740 7200,762 7480,753 7055,2076 "/>
  <path id="8" class="fil2" d="M7767 1433c30,-130 74,-234 134,-313 43,-58 96,-108 159,-148 61,-40 125,-65 191,-77 87,-15 182,-11 286,14 188,43 325,136 411,278 85,143 104,318 57,525 -48,206 -141,354 -280,445 -138,90 -301,114 -489,71 -189,-44 -327,-137 -412,-278 -85,-142 -104,-314 -57,-517zm267 53c-34,144 -25,261 24,351 50,90 126,147 228,170 103,24 196,6 279,-52 82,-59 141,-162 175,-310 34,-146 27,-262 -21,-349 -47,-87 -124,-143 -230,-167 -106,-24 -200,-8 -282,50 -81,58 -139,160 -173,307z"/>
  <polygon id="9" class="fil2" points="9524,2615 10292,1555 10612,1787 10281,2649 10995,2064 11315,2296 10548,3356 10349,3212 10953,2378 10139,3060 9933,2910 10327,1924 9723,2758 "/>
  <polygon id="10" class="fil2" points="10736,3553 11729,2700 12361,3436 12194,3580 11733,3045 11513,3234 11942,3732 11774,3876 11346,3378 11076,3610 11553,4165 11386,4308 "/>
  <path id="11" class="fil2" d="M11505 4507l1189 -545 231 505c59,127 90,224 95,292 6,67 -11,131 -50,190 -39,60 -93,106 -164,138 -89,41 -175,49 -257,23 -82,-26 -155,-88 -218,-185 -6,66 -20,124 -40,174 -21,51 -65,126 -131,226l-165 251 -132 -287 179 -292c65,-105 103,-173 117,-207 14,-34 19,-66 17,-95 -3,-29 -17,-72 -43,-127l-22 -49 -497 228 -109 -240zm796 -75l81 178c53,115 91,185 114,209 23,24 50,39 81,44 31,6 65,0 100,-16 40,-19 68,-44 82,-77 16,-32 17,-70 6,-111 -6,-21 -32,-80 -76,-178l-86 -187 -302 138z"/>
  <polygon id="12" class="fil2" points="12045,5712 13321,5481 13368,5741 12308,5932 12425,6579 12208,6618 "/>
  <path id="13" class="fil2" d="M12865 6790c133,5 244,28 333,71 66,32 124,75 175,128 52,53 89,111 112,173 32,83 46,177 43,284 -7,192 -72,344 -195,456 -124,111 -292,164 -505,156 -211,-7 -374,-70 -489,-189 -116,-118 -170,-274 -164,-466 7,-194 72,-347 194,-457 123,-111 288,-163 496,-156zm0 272c-148,-4 -262,26 -340,92 -79,65 -120,151 -124,256 -3,105 32,193 105,263 74,70 186,107 338,113 149,5 262,-24 338,-87 76,-64 116,-150 120,-258 3,-109 -31,-198 -103,-267 -73,-69 -184,-107 -334,-112z"/>
  <path class="fil2" d="M2340 11527l-168 -231 175 -266 -308 -426 -305 87 -164 -227 1358 -356 164 227 -752 1192zm136 -697l286 -431 -496 141 210 290zm193 1015l811 -1028 437 345c110,87 182,159 217,217 36,58 50,122 42,192 -7,71 -35,137 -82,198 -61,77 -134,123 -219,138 -85,14 -177,-8 -278,-65 25,61 39,119 43,173 5,54 0,141 -14,260l-33 299 -248 -196 28 -341c10,-122 13,-201 9,-238 -3,-36 -12,-67 -28,-92 -17,-25 -48,-56 -96,-94l-42 -33 -339 429 -208 -164zm676 -429l153 121c100,79 165,124 197,135 31,11 62,12 92,2 30,-9 58,-30 82,-61 27,-34 40,-69 39,-105 -2,-36 -18,-70 -47,-102 -15,-16 -64,-57 -148,-123l-162 -128 -206 261zm1398 1214l90 -203 519 231 -212 477c-72,27 -164,38 -277,33 -113,-5 -218,-30 -317,-74 -125,-55 -222,-130 -292,-224 -69,-93 -105,-200 -109,-318 -3,-119 21,-236 72,-351 55,-125 131,-224 226,-298 95,-74 205,-115 328,-122 95,-5 199,17 313,68 149,66 251,149 307,248 55,100 71,210 46,330l-261 -61c9,-66 -2,-127 -33,-182 -31,-54 -82,-97 -151,-128 -105,-47 -204,-51 -296,-11 -92,39 -167,125 -226,257 -63,142 -79,263 -47,362 31,99 98,171 200,216 51,23 106,35 165,38 60,3 114,-2 163,-14l68 -152 -276 -122zm863 803l245 -1286 952 181 -42 217 -691 -132 -55 286 643 122 -41 218 -643 -123 -66 349 717 136 -42 217 -977 -185zm1536 202l-99 -1305 255 -20 604 834 -66 -875 244 -18 99 1305 -264 20 -594 -817 65 858 -244 18zm1904 -300l-371 -1023 -364 132 -75 -208 976 -353 75 208 -362 131 370 1023 -249 90zm1035 -421l-576 -1175 238 -117 576 1175 -238 117zm739 -412l-810 -1027 201 -159 966 355 -543 -689 192 -152 811 1028 -208 164 -949 -347 533 676 -193 151zm1909 -2045l-166 232 -308 -81 -305 427 179 261 -163 229 -769 -1175 163 -228 1369 335zm-704 92l-500 -134 292 426 208 -292z"/>
  <circle class="fil0" cx="7147" cy="7147" r="4596"/>
  <circle class="fil1" cx="7147" cy="7147" r="4434"/>
  <g id="_2384785645888">
   <path class="fil3" d="M10645 5030c-63,2933 -1301,4766 -3483,5817 -18,8 -12,8 -29,0 -2182,-1050 -3421,-2883 -3484,-5817 1292,-84 2718,-465 3498,-1589 834,1136 2153,1501 3498,1589z"/>
   <path class="fil4" d="M10465 5171c-59,2738 -1267,4449 -3304,5430 -17,8 -11,8 -27,0 -2038,-980 -3246,-2691 -3305,-5430 1206,-79 2590,-435 3318,-1484 779,1061 2062,1402 3318,1484z"/>
   <g style="clip-path:url(#id0)">
    <g>
     <rect class="fil0" transform="matrix(1.06129 1.06129 -1.23818 1.23818 9550.87 3978.74)" width="815" height="4889"/>
    </g>
   </g>
   <path class="fil5 str0" d="M10465 5171c-59,2738 -1267,4449 -3304,5430 -17,8 -11,8 -27,0 -2038,-980 -3246,-2691 -3305,-5430 1206,-79 2590,-435 3318,-1484 779,1061 2062,1402 3318,1484z"/>
   <path class="fil2" d="M5555 6506l210 211 -17 17c-69,-42 -135,-59 -200,-53 -65,7 -120,33 -166,78 -38,38 -62,84 -71,137 -10,54 -5,105 16,155 26,64 67,124 122,179 54,54 111,97 169,128 58,31 114,43 166,36 52,-6 101,-32 148,-79 38,-38 65,-82 80,-130 15,-49 19,-111 14,-187l52 52c2,70 -8,131 -29,184 -21,53 -56,104 -105,153 -65,65 -135,109 -212,134 -76,24 -152,26 -228,4 -76,-21 -142,-59 -197,-114 -58,-58 -97,-128 -119,-211 -22,-82 -21,-163 2,-243 23,-80 63,-149 121,-207 43,-43 97,-79 163,-108 38,-16 61,-29 69,-36 9,-10 14,-21 14,-35 0,-14 -7,-30 -20,-47l18 -18z"/>
   <path id="1" class="fil2" d="M6194 6833c21,-21 46,-32 75,-31 30,0 54,10 75,31 21,20 31,45 31,74 0,29 -11,54 -31,75 -21,20 -46,31 -75,31 -29,0 -53,-11 -74,-31 -21,-21 -31,-46 -31,-75 0,-29 10,-54 30,-74z"/>
   <path id="2" class="fil2" d="M6937 5124l207 198 -18 18c-60,-42 -122,-62 -187,-58 -65,2 -117,24 -156,63 -31,31 -47,63 -48,97 -1,34 8,61 30,83 13,13 28,22 45,26 22,5 50,5 83,0 24,-4 74,-19 150,-45 106,-36 187,-51 242,-45 56,7 104,30 144,70 50,51 74,115 71,191 -3,76 -35,144 -96,205 -19,19 -39,35 -59,49 -21,13 -50,27 -86,42 -21,8 -36,17 -45,26 -8,8 -13,19 -16,34 -2,14 0,30 7,48l-17 17 -229 -230 17 -16c77,51 152,75 223,71 71,-3 129,-27 172,-70 33,-33 51,-69 52,-107 2,-38 -9,-69 -33,-94 -15,-14 -32,-24 -53,-30 -21,-6 -46,-7 -73,-3 -28,3 -71,15 -130,35 -82,28 -145,44 -189,50 -43,4 -83,2 -119,-9 -37,-10 -69,-30 -98,-58 -48,-49 -72,-108 -70,-177 1,-70 29,-131 83,-185 20,-20 41,-37 65,-51 17,-10 41,-21 71,-31 30,-11 49,-20 57,-28 8,-8 11,-16 11,-25 0,-10 -8,-25 -22,-47l14 -14z"/>
   <path id="3" class="fil2" d="M7605 5422c21,-21 46,-32 75,-31 30,0 55,10 75,31 21,20 31,45 31,74 0,29 -11,54 -31,75 -21,20 -46,31 -75,31 -29,0 -53,-11 -74,-31 -21,-21 -31,-46 -31,-75 0,-29 10,-54 30,-74z"/>
   <path class="fil2" d="M7341 9385l-17 -16 21 -21c17,-17 28,-33 32,-48 4,-15 3,-30 -2,-44 -4,-9 -21,-29 -52,-60l-400 -400c-31,-31 -52,-48 -63,-53 -11,-4 -25,-5 -40,0 -16,4 -33,14 -50,31l-20 21 -16 -17 271 -272c73,-72 141,-121 205,-145 78,-30 156,-35 233,-14 77,21 146,63 208,125 43,42 75,89 97,138 23,50 34,97 36,143 2,45 -5,89 -19,131 -14,43 -38,89 -72,138 -14,22 -41,52 -80,91l-272 272zm-341 -804l473 474c26,25 42,39 50,42 8,3 17,4 25,1 13,-3 27,-13 42,-28 50,-50 71,-105 63,-165 -10,-82 -63,-171 -160,-268 -78,-78 -153,-128 -224,-150 -56,-17 -105,-17 -149,0 -30,13 -71,44 -120,94z"/>
   <path id="1" class="fil2" d="M7968 8482c21,-21 46,-31 75,-31 29,0 54,11 75,31 20,21 30,46 30,75 0,29 -10,54 -31,74 -20,21 -45,31 -74,31 -29,0 -54,-10 -75,-30 -20,-21 -31,-46 -31,-75 0,-29 10,-54 31,-75z"/>
   <path id="2" class="fil2" d="M8726 7586l-236 -565 248 -247 16 17 -20 19c-18,18 -29,36 -33,53 -4,11 -2,24 3,39 4,10 21,31 51,61l400 400c31,31 52,49 63,53 12,5 25,5 41,0 16,-4 33,-15 49,-32l20 -19 17 16 -317 317 -17 -16 20 -20c18,-18 29,-35 34,-52 3,-12 2,-25 -4,-40 -4,-10 -21,-31 -52,-61l-450 -450 321 787 -10 10 -787 -313 428 428c30,30 49,47 57,52 19,12 40,15 62,12 22,-4 48,-20 75,-47l17 16 -208 208 -17 -17 7 -6c14,-13 24,-28 31,-44 7,-16 10,-31 8,-45 -2,-14 -8,-29 -19,-46 -3,-4 -18,-20 -45,-47l-384 -384c-31,-31 -52,-49 -63,-53 -10,-4 -24,-4 -40,0 -16,4 -32,15 -49,32l-20 19 -16 -16 248 -248 571 229z"/>
   <path id="3" class="fil2" d="M9338 7112c21,-21 46,-31 75,-31 29,0 54,10 75,31 20,21 31,46 30,75 0,29 -10,54 -31,74 -20,21 -45,31 -74,31 -29,0 -54,-10 -74,-31 -21,-20 -31,-45 -32,-74 0,-29 11,-54 31,-75z"/>
  </g>
 </g>
</svg>
