<?xml version="1.0" encoding="UTF-8"?>
<!DOCTYPE svg PUBLIC "-//W3C//DTD SVG 1.1//EN" "http://www.w3.org/Graphics/SVG/1.1/DTD/svg11.dtd">
<!-- Creator: CorelDRAW X8 -->
<svg xmlns="http://www.w3.org/2000/svg" xml:space="preserve" width="45.6458mm" height="48.3648mm" version="1.1" style="shape-rendering:geometricPrecision; text-rendering:geometricPrecision; image-rendering:optimizeQuality; fill-rule:evenodd; clip-rule:evenodd"
viewBox="0 0 1251 1326"
 xmlns:xlink="http://www.w3.org/1999/xlink">
 <defs>
  <style type="text/css">
   <![CDATA[
    .str0 {stroke:#1E154D;stroke-width:2.08856}
    .fil3 {fill:none}
    .fil0 {fill:#16154D}
    .fil2 {fill:#16154D}
    .fil1 {fill:#FEFEFE}
    .fil4 {fill:#16154D;fill-rule:nonzero}
   ]]>
  </style>
   <clipPath id="id0">
    <path d="M1219 309c-11,490 -227,796 -591,972 -3,1 -2,1 -5,0 -364,-176 -580,-482 -591,-972 216,-14 463,-77 594,-265 139,190 368,251 593,265z"/>
   </clipPath>
 </defs>
 <g id="Capa_x0020_1">
  <metadata id="CorelCorpID_0Corel-Layer"/>
  <path class="fil0" d="M1251 284c-11,525 -233,853 -623,1040 -3,2 -2,2 -5,1 -390,-188 -612,-516 -623,-1041 231,-15 486,-83 626,-284 149,203 384,269 625,284z"/>
  <path class="fil1" d="M1219 309c-11,490 -227,796 -591,972 -3,1 -2,1 -5,0 -364,-176 -580,-482 -591,-972 216,-14 463,-77 594,-265 139,190 368,251 593,265z"/>
  <g style="clip-path:url(#id0)">
   <g id="_2384785646720">
    <rect class="fil2" transform="matrix(0.692472 0.692472 -0.807887 0.807887 1055.44 96.1987)" width="223" height="1340"/>
   </g>
  </g>
  <path class="fil3 str0" d="M1219 309c-11,490 -227,796 -591,972 -3,1 -2,1 -5,0 -364,-176 -580,-482 -591,-972 216,-14 463,-77 594,-265 139,190 368,251 593,265z"/>
  <path class="fil4" d="M341 548l37 38 -3 3c-12,-8 -24,-11 -35,-9 -12,1 -22,5 -30,13 -7,7 -11,15 -13,25 -2,10 -1,19 3,28 5,11 12,22 22,32 10,9 20,17 30,22 11,6 20,8 30,7 9,-1 18,-6 26,-14 7,-7 12,-15 14,-23 3,-9 4,-20 3,-34l9 9c1,13 -1,24 -5,33 -4,10 -10,19 -19,28 -11,11 -24,19 -37,24 -14,4 -28,4 -41,0 -14,-3 -26,-10 -35,-20 -11,-10 -18,-23 -22,-38 -4,-14 -4,-29 1,-43 4,-15 11,-27 21,-37 8,-8 18,-14 29,-19 7,-3 11,-6 13,-7 1,-2 2,-4 2,-6 0,-3 -1,-6 -3,-9l3 -3z"/>
  <path id="1" class="fil4" d="M455 607c4,-4 8,-6 14,-6 5,0 9,2 13,6 4,3 5,8 5,13 0,5 -1,10 -5,13 -4,4 -8,6 -13,6 -6,0 -10,-2 -14,-6 -3,-3 -5,-8 -5,-13 0,-5 2,-10 5,-13z"/>
  <path id="2" class="fil4" d="M588 301l37 35 -3 4c-11,-8 -22,-11 -34,-11 -11,1 -21,4 -28,12 -5,5 -8,11 -8,17 0,6 1,11 5,15 3,2 5,4 8,4 4,1 9,1 15,0 4,0 13,-3 27,-8 19,-6 33,-9 43,-8 10,2 19,6 26,13 9,9 13,20 13,34 -1,14 -7,26 -17,37 -4,3 -7,6 -11,8 -4,3 -9,5 -16,8 -3,1 -6,3 -7,5 -2,1 -3,3 -3,6 -1,2 0,5 1,8l-3 3 -41 -41 3 -3c14,9 27,14 40,13 13,-1 23,-5 31,-13 6,-6 9,-12 9,-19 0,-7 -2,-12 -6,-16 -3,-3 -6,-5 -10,-6 -3,-1 -8,-1 -13,0 -5,0 -12,2 -23,6 -15,5 -26,8 -34,9 -7,1 -14,0 -21,-2 -6,-2 -12,-5 -17,-10 -9,-9 -13,-19 -13,-32 0,-12 5,-23 15,-33 4,-4 7,-7 12,-9 3,-2 7,-4 12,-6 6,-1 9,-3 10,-5 2,-1 2,-2 2,-4 0,-2 -1,-5 -3,-9l2 -2z"/>
  <path id="3" class="fil4" d="M708 354c3,-4 8,-5 13,-5 5,0 10,2 13,5 4,4 6,8 6,14 0,5 -2,9 -6,13 -3,4 -8,5 -13,5 -5,0 -10,-1 -13,-5 -4,-4 -6,-8 -6,-13 0,-6 2,-10 6,-14z"/>
  <path class="fil4" d="M660 1063l-3 -3 4 -3c3,-4 5,-7 6,-9 0,-3 0,-5 -1,-8 0,-2 -3,-5 -9,-11l-72 -71c-5,-6 -9,-9 -11,-10 -2,-1 -4,-1 -7,0 -3,1 -6,3 -9,6l-3 3 -3 -3 48 -48c13,-13 25,-22 37,-26 14,-5 28,-6 41,-3 14,4 27,12 38,23 7,7 13,16 17,25 4,8 6,17 6,25 1,8 0,16 -3,24 -3,7 -7,15 -13,24 -2,4 -7,9 -14,16l-49 49zm-61 -144l85 85c4,4 7,7 9,8 1,0 3,0 4,0 3,-1 5,-3 8,-5 9,-9 12,-19 11,-30 -2,-14 -11,-30 -29,-48 -14,-14 -27,-23 -40,-27 -10,-3 -18,-3 -26,1 -6,2 -13,7 -22,16z"/>
  <path id="1" class="fil4" d="M772 902c4,-4 9,-6 14,-6 5,0 9,2 13,6 4,3 6,8 6,13 0,5 -2,10 -6,13 -4,4 -8,6 -13,6 -5,0 -10,-2 -14,-6 -3,-3 -5,-8 -5,-13 0,-5 2,-10 5,-13z"/>
  <path id="2" class="fil4" d="M908 741l-42 -101 44 -44 3 3 -4 4c-3,3 -5,6 -6,9 0,2 0,4 1,7 1,2 4,5 9,11l72 71c5,6 9,9 11,10 2,1 4,1 7,0 3,-1 6,-3 9,-6l4 -3 3 3 -57 56 -3 -3 3 -3c4,-3 6,-6 6,-9 1,-3 1,-5 0,-7 -1,-2 -4,-6 -9,-11l-81 -81 58 141 -2 2 -141 -56 76 76c6,5 9,9 11,10 3,2 7,2 11,2 4,-1 8,-4 13,-9l3 3 -37 37 -3 -3 1 -1c3,-2 5,-5 6,-8 1,-3 1,-5 1,-8 0,-2 -1,-5 -3,-8 -1,-1 -3,-4 -8,-8l-69 -69c-5,-6 -9,-9 -11,-10 -2,0 -4,0 -7,0 -3,1 -6,3 -9,6l-4 4 -3 -3 45 -45 102 41z"/>
  <path id="3" class="fil4" d="M1017 657c4,-4 9,-6 14,-6 5,0 9,2 13,6 4,3 6,8 6,13 0,5 -2,10 -6,13 -4,4 -8,6 -13,6 -5,0 -10,-2 -14,-6 -3,-3 -5,-8 -5,-13 0,-5 2,-10 5,-13z"/>
 </g>
</svg>
