<?xml version="1.0" encoding="UTF-8"?>
<!DOCTYPE svg PUBLIC "-//W3C//DTD SVG 1.1//EN" "http://www.w3.org/Graphics/SVG/1.1/DTD/svg11.dtd">
<!-- Creator: CorelDRAW X8 -->
<svg xmlns="http://www.w3.org/2000/svg" xml:space="preserve" width="12.4816mm" height="12.482mm" version="1.1" shape-rendering="geometricPrecision" text-rendering="geometricPrecision" image-rendering="optimizeQuality" fill-rule="evenodd" clip-rule="evenodd"
viewBox="0 0 129 129"
 xmlns:xlink="http://www.w3.org/1999/xlink">
 <g id="Capa_x0020_1">
  <metadata id="CorelCorpID_0Corel-Layer"/>
  <path fill="#FEFEFE" fill-rule="nonzero" d="M99 23c-5,0 -8,3 -8,8 0,4 3,7 8,7 4,0 7,-3 7,-7 0,-5 -3,-8 -7,-8z"/>
  <path fill="#FEFEFE" fill-rule="nonzero" d="M65 85c-11,0 -20,-9 -20,-20 0,-12 9,-21 20,-21 11,0 20,9 20,21 0,11 -9,20 -20,20zm0 -52c-17,0 -32,14 -32,32 0,17 15,31 32,31 18,0 32,-14 32,-31 0,-18 -14,-32 -32,-32z"/>
  <path fill="#FEFEFE" fill-rule="nonzero" d="M39 12c-15,0 -27,12 -27,27l0 51c0,15 12,27 27,27l51 0c15,0 27,-12 27,-27l0 -51c0,-15 -12,-27 -27,-27l-51 0zm51 117l-51 0c-22,0 -39,-17 -39,-39l0 -51c0,-22 17,-39 39,-39l51 0c22,0 39,17 39,39l0 51c0,22 -17,39 -39,39z"/>
 </g>
</svg>
