<?xml version="1.0" encoding="UTF-8"?>
<!DOCTYPE svg PUBLIC "-//W3C//DTD SVG 1.1//EN" "http://www.w3.org/Graphics/SVG/1.1/DTD/svg11.dtd">
<!-- Creator: CorelDRAW X8 -->
<svg xmlns="http://www.w3.org/2000/svg" xml:space="preserve" width="12.4512mm" height="12.4817mm" version="1.1" shape-rendering="geometricPrecision" text-rendering="geometricPrecision" image-rendering="optimizeQuality" fill-rule="evenodd" clip-rule="evenodd"
viewBox="0 0 128 129"
 xmlns:xlink="http://www.w3.org/1999/xlink">
 <g id="Capa_x0020_1">
  <metadata id="CorelCorpID_0Corel-Layer"/>
  <path fill="#FEFEFE" fill-rule="nonzero" d="M36 107l3 1c8,5 17,7 26,7 28,0 51,-23 51,-51 0,-29 -23,-52 -51,-52 -29,0 -52,23 -52,52 0,9 3,18 8,26l1 3 -5 19 19 -5zm-36 22l9 -35c-5,-9 -8,-20 -8,-30 0,-35 29,-64 64,-64 35,0 63,29 63,64 0,35 -28,63 -63,63 -11,0 -21,-2 -30,-8l-35 10z"/>
  <path fill="#FEFEFE" d="M88 72c-2,-1 -6,-3 -9,-2 -2,1 -3,5 -5,7 -1,1 -2,1 -3,1 -9,-4 -16,-10 -21,-18 0,-1 0,-2 1,-4 1,-1 3,-3 4,-6 0,-2 -1,-5 -2,-7 -1,-2 -3,-6 -5,-8 -3,-1 -6,0 -8,1 -4,4 -6,8 -6,13 0,1 0,3 1,4 0,3 2,6 3,9 2,2 3,4 4,6 5,7 11,12 18,16 3,3 7,4 11,6 4,1 8,3 13,2 4,-1 9,-4 11,-9 1,-1 1,-3 1,-4 -1,-3 -5,-5 -8,-7z"/>
 </g>
</svg>
